{
  "source": "C:\\Users\\Peter\\Desktop\\stuff\\MIUN\\quantitative_research\\video_compression\\videos\\BVI-HD\\BVI-HD_CDVL_videos\\ORIG\\RockWave_1920x1080_30fps.mp4",
  "output": "C:\\Users\\Peter\\Desktop\\stuff\\MIUN\\quantitative_research\\video_compression\\compressed_videos\\BVI-HD\\vp9\\4\\RockWave_1920x1080_30fps_vp9.webm",
  "codec": "vp9",
  "ok": "Input #0, mov,mp4,m4a,3gp,3g2,mj2, from 'C:\\Users\\Peter\\Desktop\\stuff\\MIUN\\quantitative_research\\video_compression\\videos\\BVI-HD\\BVI-HD_CDVL_videos\\ORIG\\RockWave_1920x1080_30fps.mp4':\n  Metadata:\n    major_brand     : isom\n    minor_version   : 512\n    compatible_brands: isomiso2avc1mp41\n    encoder         : Lavf54.28.101\n  Duration: 00:00:05.00, start: 0.000000, bitrate: 303557 kb/s\n  Stream #0:0[0x1](und): Video: h264 (High 4:4:4 Predictive) (avc1 / 0x31637661), yuv420p(progressive), 1920x1080, 303553 kb/s, 30 fps, 30 tbr, 30 tbn (default)\n    Metadata:\n      handler_name    : VideoHandler\n      vendor_id       : [0][0][0][0]\n[out#0/webm @ 0000012563a89700] Codec AVOption b:a (set bitrate (in bits/s)) has not been used for any stream. The most likely reason is either wrong type (e.g. a video option with no video streams) or that it is a private option of some decoder which was not actually used for any stream.\nStream mapping:\n  Stream #0:0 -> #0:0 (h264 (native) -> vp9 (libvpx-vp9))\nPress [q] to stop, [?] for help\n[libvpx-vp9 @ 0000012565bc0440] v1.15.2-100-g40561f514\nOutput #0, webm, to 'C:\\Users\\Peter\\Desktop\\stuff\\MIUN\\quantitative_research\\video_compression\\compressed_videos\\BVI-HD\\vp9\\4\\RockWave_1920x1080_30fps_vp9.webm':\n  Metadata:\n    major_brand     : isom\n    minor_version   : 512\n    compatible_brands: isomiso2avc1mp41\n    encoder         : Lavf62.3.100\n  Stream #0:0(und): Video: vp9, yuv420p(tv, progressive), 1920x1080, q=2-31, 4000 kb/s, 30 fps, 1k tbn (default)\n    Metadata:\n      encoder         : Lavc62.11.100 libvpx-vp9\n      handler_name    : VideoHandler\n      vendor_id       : [0][0][0][0]\n    Side data:\n      cpb: bitrate max/min/avg: 0/0/0 buffer size: 4000000 vbv_delay: N/A\nframe=    0 fps=0.0 q=0.0 size=       0KiB time=N/A bitrate=N/A speed=N/A elapsed=0:00:00.55    \nframe=    0 fps=0.0 q=0.0 size=       0KiB time=N/A bitrate=N/A speed=N/A elapsed=0:00:01.19    \nframe=    1 fps=0.5 q=12.0 size=       1KiB time=00:00:00.03 bitrate= 152.2kbits/s speed=0.018x elapsed=0:00:01.85    \nframe=    3 fps=1.2 q=45.0 size=       1KiB time=00:00:00.10 bitrate=  50.7kbits/s speed=0.0408x elapsed=0:00:02.45    \nframe=    5 fps=1.6 q=57.0 size=       1KiB time=00:00:00.16 bitrate=  30.4kbits/s speed=0.0544x elapsed=0:00:03.06    \nframe=    7 fps=1.9 q=63.0 size=       1KiB time=00:00:00.23 bitrate=  21.7kbits/s speed=0.0648x elapsed=0:00:03.60    \nframe=   10 fps=2.4 q=63.0 size=       1KiB time=00:00:00.33 bitrate=  15.2kbits/s speed=0.0807x elapsed=0:00:04.12    \nframe=   12 fps=2.6 q=63.0 size=       1KiB time=00:00:00.40 bitrate=  12.7kbits/s speed=0.0856x elapsed=0:00:04.67    \nframe=   14 fps=2.7 q=63.0 size=       1KiB time=00:00:00.46 bitrate=  10.9kbits/s speed=0.0899x elapsed=0:00:05.19    \nframe=   17 fps=3.0 q=63.0 size=       1KiB time=00:00:00.56 bitrate=   9.0kbits/s speed=0.0987x elapsed=0:00:05.73    \nframe=   18 fps=2.9 q=63.0 size=       1KiB time=00:00:00.60 bitrate=   8.5kbits/s speed=0.0954x elapsed=0:00:06.28    \nframe=   20 fps=2.9 q=63.0 size=       1KiB time=00:00:00.66 bitrate=   7.6kbits/s speed=0.0979x elapsed=0:00:06.80    \nframe=   21 fps=2.8 q=42.0 size=       1KiB time=00:00:00.70 bitrate=   7.2kbits/s speed=0.0944x elapsed=0:00:07.41    \nframe=   23 fps=2.8 q=63.0 size=       1KiB time=00:00:00.76 bitrate=   6.6kbits/s speed=0.0946x elapsed=0:00:08.10    \nframe=   24 fps=2.7 q=63.0 size=       1KiB time=00:00:00.80 bitrate=   6.3kbits/s speed=0.0909x elapsed=0:00:08.79    \nframe=   26 fps=2.8 q=63.0 size=       1KiB time=00:00:00.86 bitrate=   5.9kbits/s speed=0.0925x elapsed=0:00:09.36    \nframe=   27 fps=2.7 q=63.0 size=       1KiB time=00:00:00.90 bitrate=   5.6kbits/s speed=0.0907x elapsed=0:00:09.92    \nframe=   30 fps=2.9 q=63.0 size=       1KiB time=00:00:01.00 bitrate=   5.1kbits/s speed=0.0956x elapsed=0:00:10.46    \nframe=   32 fps=2.9 q=63.0 size=       1KiB time=00:00:01.06 bitrate=   4.8kbits/s speed=0.096x elapsed=0:00:11.11    \nframe=   33 fps=2.8 q=63.0 size=       1KiB time=00:00:01.10 bitrate=   4.6kbits/s speed=0.0941x elapsed=0:00:11.69    \nframe=   36 fps=2.9 q=63.0 size=       1KiB time=00:00:01.20 bitrate=   4.2kbits/s speed=0.0981x elapsed=0:00:12.22    \nframe=   38 fps=3.0 q=63.0 size=       1KiB time=00:00:01.26 bitrate=   4.0kbits/s speed=0.0986x elapsed=0:00:12.84    \nframe=   40 fps=3.0 q=63.0 size=       1KiB time=00:00:01.33 bitrate=   3.8kbits/s speed=0.0994x elapsed=0:00:13.41    \nframe=   42 fps=3.0 q=63.0 size=       1KiB time=00:00:01.40 bitrate=   3.6kbits/s speed= 0.1x elapsed=0:00:13.98    \nframe=   44 fps=3.0 q=63.0 size=       1KiB time=00:00:01.46 bitrate=   3.5kbits/s speed= 0.1x elapsed=0:00:14.62    \nframe=   46 fps=3.0 q=63.0 size=       1KiB time=00:00:01.53 bitrate=   3.3kbits/s speed=0.101x elapsed=0:00:15.19    \nframe=   48 fps=3.0 q=63.0 size=       1KiB time=00:00:01.60 bitrate=   3.2kbits/s speed=0.102x elapsed=0:00:15.73    \nframe=   50 fps=3.0 q=63.0 size=       1KiB time=00:00:01.66 bitrate=   3.0kbits/s speed=0.102x elapsed=0:00:16.39    \nframe=   52 fps=3.1 q=63.0 size=       1KiB time=00:00:01.73 bitrate=   2.9kbits/s speed=0.102x elapsed=0:00:16.98    \nframe=   55 fps=3.1 q=63.0 size=       1KiB time=00:00:01.83 bitrate=   2.8kbits/s speed=0.105x elapsed=0:00:17.52    \nframe=   57 fps=3.1 q=63.0 size=       1KiB time=00:00:01.90 bitrate=   2.7kbits/s speed=0.104x elapsed=0:00:18.20    \nframe=   59 fps=3.1 q=63.0 size=       1KiB time=00:00:01.96 bitrate=   2.6kbits/s speed=0.104x elapsed=0:00:18.92    \nframe=   60 fps=3.1 q=63.0 size=       1KiB time=00:00:02.00 bitrate=   2.5kbits/s speed=0.103x elapsed=0:00:19.50    \nframe=   62 fps=3.1 q=63.0 size=       1KiB time=00:00:02.06 bitrate=   2.5kbits/s speed=0.103x elapsed=0:00:20.07    \nframe=   64 fps=3.1 q=63.0 size=       1KiB time=00:00:02.13 bitrate=   2.4kbits/s speed=0.103x elapsed=0:00:20.61    \nframe=   66 fps=3.1 q=63.0 size=       1KiB time=00:00:02.20 bitrate=   2.3kbits/s speed=0.104x elapsed=0:00:21.16    \nframe=   69 fps=3.2 q=63.0 size=       1KiB time=00:00:02.30 bitrate=   2.2kbits/s speed=0.106x elapsed=0:00:21.75    \nframe=   70 fps=3.1 q=63.0 size=       1KiB time=00:00:02.33 bitrate=   2.2kbits/s speed=0.104x elapsed=0:00:22.33    \nframe=   73 fps=3.2 q=61.0 size=       1KiB time=00:00:02.43 bitrate=   2.1kbits/s speed=0.106x elapsed=0:00:22.96    \nframe=   75 fps=3.2 q=62.0 size=       1KiB time=00:00:02.50 bitrate=   2.0kbits/s speed=0.106x elapsed=0:00:23.52    \nframe=   77 fps=3.2 q=62.0 size=       1KiB time=00:00:02.56 bitrate=   2.0kbits/s speed=0.106x elapsed=0:00:24.13    \nframe=   79 fps=3.2 q=62.0 size=       1KiB time=00:00:02.63 bitrate=   1.9kbits/s speed=0.107x elapsed=0:00:24.71    \nframe=   80 fps=3.2 q=62.0 size=       1KiB time=00:00:02.66 bitrate=   1.9kbits/s speed=0.106x elapsed=0:00:25.22    \nframe=   81 fps=3.1 q=46.0 size=       1KiB time=00:00:02.70 bitrate=   1.9kbits/s speed=0.105x elapsed=0:00:25.76    \nframe=   83 fps=3.2 q=61.0 size=       1KiB time=00:00:02.76 bitrate=   1.8kbits/s speed=0.105x elapsed=0:00:26.30    \nframe=   85 fps=3.2 q=62.0 size=       1KiB time=00:00:02.83 bitrate=   1.8kbits/s speed=0.106x elapsed=0:00:26.82    \nframe=   87 fps=3.2 q=61.0 size=       1KiB time=00:00:02.90 bitrate=   1.7kbits/s speed=0.106x elapsed=0:00:27.40    \nframe=   89 fps=3.2 q=62.0 size=       1KiB time=00:00:02.96 bitrate=   1.7kbits/s speed=0.106x elapsed=0:00:27.97    \nframe=   91 fps=3.2 q=45.0 size=       1KiB time=00:00:03.03 bitrate=   1.7kbits/s speed=0.106x elapsed=0:00:28.49    \nframe=   93 fps=3.2 q=62.0 size=       1KiB time=00:00:03.10 bitrate=   1.6kbits/s speed=0.107x elapsed=0:00:29.07    \nframe=   95 fps=3.2 q=62.0 size=       1KiB time=00:00:03.16 bitrate=   1.6kbits/s speed=0.107x elapsed=0:00:29.62    \nframe=   97 fps=3.2 q=62.0 size=       1KiB time=00:00:03.23 bitrate=   1.6kbits/s speed=0.107x elapsed=0:00:30.16    \nframe=  100 fps=3.3 q=62.0 size=       1KiB time=00:00:03.30 bitrate=   1.5kbits/s speed=0.107x elapsed=0:00:30.73    \nframe=  101 fps=3.2 q=44.0 size=       1KiB time=00:00:03.36 bitrate=   1.5kbits/s speed=0.108x elapsed=0:00:31.31    \nframe=  103 fps=3.2 q=62.0 size=       1KiB time=00:00:03.43 bitrate=   1.5kbits/s speed=0.108x elapsed=0:00:31.84    \nframe=  105 fps=3.2 q=62.0 size=       1KiB time=00:00:03.50 bitrate=   1.4kbits/s speed=0.108x elapsed=0:00:32.36    \nframe=  108 fps=3.3 q=62.0 size=       1KiB time=00:00:03.56 bitrate=   1.4kbits/s speed=0.108x elapsed=0:00:32.88    \nframe=  110 fps=3.3 q=62.0 size=       1KiB time=00:00:03.66 bitrate=   1.4kbits/s speed=0.109x elapsed=0:00:33.51    \nframe=  112 fps=3.3 q=62.0 size=       1KiB time=00:00:03.73 bitrate=   1.4kbits/s speed=0.109x elapsed=0:00:34.12    \nframe=  114 fps=3.3 q=62.0 size=       1KiB time=00:00:03.80 bitrate=   1.3kbits/s speed=0.109x elapsed=0:00:34.71    \nframe=  116 fps=3.3 q=63.0 size=       1KiB time=00:00:03.86 bitrate=   1.3kbits/s speed=0.11x elapsed=0:00:35.28    \nframe=  118 fps=3.3 q=62.0 size=       1KiB time=00:00:03.93 bitrate=   1.3kbits/s speed=0.11x elapsed=0:00:35.79    \nframe=  120 fps=3.3 q=62.0 size=       1KiB time=00:00:04.00 bitrate=   1.3kbits/s speed=0.11x elapsed=0:00:36.31    \nframe=  122 fps=3.3 q=63.0 size=       1KiB time=00:00:04.06 bitrate=   1.2kbits/s speed=0.11x elapsed=0:00:36.83    \nframe=  124 fps=3.3 q=63.0 size=       1KiB time=00:00:04.13 bitrate=   1.2kbits/s speed=0.111x elapsed=0:00:37.36    \nframe=  126 fps=3.3 q=63.0 size=       1KiB time=00:00:04.20 bitrate=   1.2kbits/s speed=0.111x elapsed=0:00:37.95    \nframe=  126 fps=3.3 q=63.0 size=       1KiB time=00:00:04.20 bitrate=   1.2kbits/s speed=0.109x elapsed=0:00:38.48    \nframe=  126 fps=3.2 q=63.0 size=       1KiB time=00:00:04.20 bitrate=   1.2kbits/s speed=0.107x elapsed=0:00:39.07    \nframe=  126 fps=3.2 q=63.0 size=       1KiB time=00:00:04.20 bitrate=   1.2kbits/s speed=0.106x elapsed=0:00:39.68    \nframe=  126 fps=3.1 q=63.0 size=       1KiB time=00:00:04.20 bitrate=   1.2kbits/s speed=0.104x elapsed=0:00:40.24    \nframe=  126 fps=3.1 q=63.0 size=       1KiB time=00:00:04.20 bitrate=   1.2kbits/s speed=0.103x elapsed=0:00:40.81    \nframe=  126 fps=3.0 q=63.0 size=       1KiB time=00:00:04.20 bitrate=   1.2kbits/s speed=0.102x elapsed=0:00:41.37    \nframe=  126 fps=3.0 q=63.0 size=       1KiB time=00:00:04.20 bitrate=   1.2kbits/s speed= 0.1x elapsed=0:00:41.95    \nframe=  126 fps=3.0 q=63.0 size=       1KiB time=00:00:04.20 bitrate=   1.2kbits/s speed=0.0986x elapsed=0:00:42.61    \nframe=  126 fps=2.9 q=63.0 size=       1KiB time=00:00:04.20 bitrate=   1.2kbits/s speed=0.097x elapsed=0:00:43.30    \n[out#0/webm @ 0000012563a89700] video:3061KiB audio:0KiB subtitle:0KiB other streams:0KiB global headers:0KiB muxing overhead: 0.056371%\nframe=  150 fps=3.4 q=61.0 Lsize=    3063KiB time=00:00:05.00 bitrate=5018.2kbits/s speed=0.115x elapsed=0:00:43.55    \n",
  "seconds": 44.54963445663452,
  "probe_out": {}
}